<?xml version="1.0" encoding="utf-8"?>
<!-- Generator: Adobe Illustrator 16.0.0, SVG Export Plug-In . SVG Version: 6.00 Build 0)  -->
<!DOCTYPE svg PUBLIC "-//W3C//DTD SVG 1.1//EN" "http://www.w3.org/Graphics/SVG/1.1/DTD/svg11.dtd">
<svg version="1.1" id="Layer_1" xmlns="http://www.w3.org/2000/svg" xmlns:xlink="http://www.w3.org/1999/xlink" x="0px" y="0px"
	 width="337.339px" height="429.48px" viewBox="0 0 337.339 429.48" enable-background="new 0 0 337.339 429.48"
	 xml:space="preserve">
<path fill="#9E2D2D" d="M337.829,218.969c0.024-0.35,0.037-0.689,0.052-1.039c0.029-0.722,0.017-1.425-0.033-2.145
	c-0.096-1.506-0.326-2.965-0.718-4.419c-0.839-3.155-2.206-5.84-4.26-8.39c-2.053-2.561-4.39-4.455-7.31-5.954
	c-1.35-0.693-2.733-1.24-4.191-1.642c-0.693-0.198-1.392-0.366-2.102-0.495c-0.346-0.054-0.692-0.117-1.039-0.161
	c-0.17-0.017-0.338-0.042-0.517-0.06l-0.249-0.024c-8.547-0.849-17.09-1.658-25.639-2.487l6.475-66.777
	c0.502-5.175,0.743-10.346,0.564-15.558c-0.441-12.431-3-24.695-7.564-36.27c-15.066-38.163-50.242-64.671-91.08-68.632
	c-40.818-3.958-80.41,15.27-102.536,49.795c-6.713,10.481-11.59,22.024-14.412,34.139c-1.188,5.099-1.947,10.22-2.45,15.415
	l-6.478,66.797l-32.397-3.142c-0.637-0.062-1.274-0.134-1.912-0.186c-0.169-0.017-0.338-0.033-0.508-0.04
	c-0.35-0.023-0.7-0.038-1.051-0.042c-0.723-0.01-1.438,0.011-2.157,0.062c-1.498,0.116-2.961,0.386-4.417,0.798
	c-3.15,0.89-5.808,2.29-8.323,4.387c-2.514,2.098-4.371,4.459-5.82,7.383c-0.663,1.352-1.189,2.738-1.583,4.197
	c-0.176,0.686-0.334,1.384-0.454,2.095c-0.052,0.338-0.106,0.685-0.14,1.032c-0.026,0.168-0.042,0.337-0.059,0.506
	c-1.201,12.271-2.379,24.535-3.568,36.798L1.647,331.193c-0.306,3.155-0.712,6.301-0.908,9.466c-0.019,0.311-0.03,0.621-0.03,0.932
	c-0.02,0.632-0.001,1.266,0.037,1.903c0.083,1.324,0.278,2.619,0.595,3.915c0.675,2.779,1.784,5.226,3.414,7.586
	c3.183,4.578,7.933,7.821,13.362,9.111c0.62,0.15,1.23,0.271,1.855,0.36c0.306,0.052,0.613,0.091,0.913,0.12
	c1.7,0.185,3.394,0.329,5.085,0.493l28.298,2.744c0.498,0.048,0.996,0.097,1.481,0.153c0.309,0.03,0.616,0.079,0.923,0.119
	c0.623,0.102,1.234,0.229,1.852,0.382c2.68,0.65,5.048,1.704,7.331,3.242c4.705,3.188,8.044,8.022,9.356,13.557
	c0.442,1.861,0.633,3.719,0.609,5.634c-0.014,0.451-0.038,0.9-0.071,1.351c-0.166,2.133-0.402,4.261-0.61,6.4l-1.66,17.119
	c-0.269,2.769-0.547,5.533-0.805,8.301c-0.012,0.121-0.022,0.229-0.024,0.35c-0.014,0.239-0.006,0.481,0.021,0.716
	c0.042,0.507,0.156,0.98,0.331,1.449c0.693,1.876,2.328,3.249,4.303,3.602c1.037,0.191,1.968,0.11,2.958-0.257
	c0.844-0.309,1.527-0.835,2.258-1.327c14.793-10.09,29.587-20.178,44.38-30.268c5.53-3.772,11.07-7.557,16.61-11.328
	c2.335-1.593,4.643-3.218,7.004-4.778c0.3-0.19,0.611-0.392,0.92-0.574c0.629-0.37,1.276-0.72,1.938-1.026
	c1.348-0.633,2.722-1.123,4.172-1.485c1.441-0.362,2.889-0.573,4.373-0.649c0.737-0.03,1.46-0.03,2.19,0.001
	c0.36,0.016,0.72,0.04,1.088,0.076c20.823,2.01,41.644,4.038,62.477,6.059l66.559,6.454c1.682,0.163,3.369,0.386,5.058,0.47
	c0.72,0.04,1.433,0.048,2.147,0.018c1.514-0.063,2.981-0.274,4.453-0.634c3.199-0.774,5.92-2.099,8.527-4.116
	c5.042-3.92,8.062-9.585,8.675-15.906l14.013-144.492C337.345,223.945,337.628,221.461,337.829,218.969z M131.714,108.036
	c3.104-32.01,31.569-55.442,63.579-52.338c32.011,3.104,55.441,31.569,52.337,63.579l-6.59,67.952l-115.916-11.241L131.714,108.036z
	 M212.724,327.128L71.826,313.465c-1.871-0.182-3.162-0.337-4.644-1.727c-1.281-1.199-2.002-2.876-1.962-4.631
	c0.077-3.599,3.188-6.362,6.762-6.016l140.909,13.665c0.826,0.08,1.646,0.13,2.442,0.407c1.245,0.423,2.146,1.083,2.927,2.133
	C221.47,321.587,218.06,327.645,212.724,327.128z M263.681,292.134L74.628,273.8c-3.395-0.329-5.875-3.353-5.546-6.736
	c0.329-3.395,3.343-5.875,6.737-5.546l189.053,18.334c3.383,0.328,5.863,3.341,5.534,6.735
	C270.079,289.971,267.064,292.462,263.681,292.134z M267.523,252.518L78.47,234.184c-3.395-0.329-5.876-3.342-5.548-6.725
	c0.329-3.395,3.344-5.877,6.738-5.548l189.052,18.334c3.384,0.328,5.864,3.344,5.535,6.737
	C273.919,250.366,270.906,252.846,267.523,252.518z"/>
</svg>
